<svg width="24" height="24" viewBox="0 0 24 24" fill="none" xmlns="http://www.w3.org/2000/svg">
<g id="ri:whatsapp-fill">
<path id="Vector" d="M12.001 2C17.524 2 22.001 6.477 22.001 12C22.001 17.523 17.524 22 12.001 22C10.2338 22.0029 8.49766 21.5352 6.97101 20.645L2.00501 22L3.35701 17.032C2.4661 15.5049 1.99805 13.768 2.00101 12C2.00101 6.477 6.47801 2 12.001 2ZM8.59301 7.3L8.39301 7.308C8.26353 7.31589 8.13699 7.3499 8.02101 7.408C7.91253 7.46943 7.8135 7.54622 7.72701 7.636C7.60701 7.749 7.53901 7.847 7.46601 7.942C7.09613 8.4229 6.89698 9.01331 6.90001 9.62C6.90201 10.11 7.03001 10.587 7.23001 11.033C7.63901 11.935 8.31201 12.89 9.20001 13.775C9.41401 13.988 9.62401 14.202 9.85001 14.401C10.9534 15.3725 12.2683 16.073 13.69 16.447L14.258 16.534C14.443 16.544 14.628 16.53 14.814 16.521C15.1052 16.506 15.3896 16.4271 15.647 16.29C15.778 16.2225 15.9058 16.1491 16.03 16.07C16.03 16.07 16.073 16.042 16.155 15.98C16.29 15.88 16.373 15.809 16.485 15.692C16.568 15.606 16.64 15.505 16.695 15.39C16.773 15.227 16.851 14.916 16.883 14.657C16.907 14.459 16.9 14.351 16.897 14.284C16.893 14.177 16.804 14.066 16.707 14.019L16.125 13.758C16.125 13.758 15.255 13.379 14.723 13.137C14.6673 13.1127 14.6077 13.0988 14.547 13.096C14.4786 13.089 14.4095 13.0967 14.3443 13.1186C14.2791 13.1405 14.2193 13.1761 14.169 13.223C14.164 13.221 14.097 13.278 13.374 14.154C13.3325 14.2098 13.2753 14.2519 13.2098 14.2751C13.1443 14.2982 13.0733 14.3013 13.006 14.284C12.9409 14.2665 12.877 14.2445 12.815 14.218C12.691 14.166 12.648 14.146 12.563 14.11C11.9891 13.8595 11.4577 13.5211 10.988 13.107C10.862 12.997 10.745 12.877 10.625 12.761C10.2316 12.3842 9.88873 11.958 9.60501 11.493L9.54601 11.398C9.50363 11.3342 9.46937 11.2653 9.44401 11.193C9.40601 11.046 9.50501 10.928 9.50501 10.928C9.50501 10.928 9.74801 10.662 9.86101 10.518C9.97101 10.378 10.064 10.242 10.124 10.145C10.242 9.955 10.279 9.76 10.217 9.609C9.93701 8.925 9.64701 8.244 9.34901 7.568C9.29001 7.434 9.11501 7.338 8.95601 7.319C8.90201 7.313 8.84801 7.307 8.79401 7.303C8.65971 7.29633 8.52514 7.29766 8.39101 7.307L8.59201 7.299L8.59301 7.3Z" fill="#ADADAD"/>
</g>
</svg>
